<svg xmlns="http://www.w3.org/2000/svg" data-name="Layer 1" viewBox="0 0 64 80" x="0px" y="0px"><title>Decision tree-Tree chart-Graph-Chart-Diagram</title><path d="M6,63H22a1,1,0,0,0,1-1V50a1,1,0,0,0-1-1H15V43.94a9,9,0,0,0,0-17.88V22H50v4.06a9,9,0,0,0,0,17.88V49H43a1,1,0,0,0-1,1V62a1,1,0,0,0,1,1H59a1,1,0,0,0,1-1V50a1,1,0,0,0-1-1H52V43.94a9,9,0,0,0,0-17.88V21a1,1,0,0,0-1-1H33V16h7a1,1,0,0,0,1-1V3a1,1,0,0,0-1-1H24a1,1,0,0,0-1,1V15a1,1,0,0,0,1,1h7v4H14a1,1,0,0,0-1,1v5.06a9,9,0,0,0,0,17.88V49H6a1,1,0,0,0-1,1V62A1,1,0,0,0,6,63ZM53.29,31.29l1.42,1.42L52.41,35l2.3,2.29-1.42,1.42L51,36.41l-2.29,2.3-1.42-1.42L49.59,35l-2.3-2.29,1.42-1.42L51,33.59ZM12.76,39.65A1,1,0,0,1,12,40h-.06a1,1,0,0,1-.77-.45l-2-3,1.66-1.1,1.27,1.9,5.14-6,1.52,1.3Z"/><text x="0" y="79" fill="#000000" font-size="5px" font-weight="bold" font-family="'Helvetica Neue', Helvetica, Arial-Unicode, Arial, Sans-serif"></text><text x="0" y="84" fill="#000000" font-size="5px" font-weight="bold" font-family="'Helvetica Neue', Helvetica, Arial-Unicode, Arial, Sans-serif"></text></svg>