<svg xmlns="http://www.w3.org/2000/svg" viewBox="0 0 512 640" x="0px" y="0px"><g><path d="M256,0C114.62,0,0,114.62,0,256s114.62,256,256,256,256-114.62,256-256S397.38,0,256,0Zm28.28,408.37c-1.08,6.09-6.6,11.61-12.69,12.69-3.69,.61-8.72,1.19-15.59,1.2-6.86,0-11.89-.58-15.59-1.2-6.09-1.08-11.61-6.6-12.69-12.69-.61-3.69-1.19-8.72-1.2-15.59,0-6.86,.58-11.89,1.2-15.59,1.08-6.09,6.6-11.61,12.69-12.69,3.69-.61,8.72-1.19,15.59-1.2,6.86,0,11.89,.58,15.59,1.2,6.09,1.08,11.61,6.6,12.69,12.69,.61,3.69,1.19,8.72,1.2,15.59,0,6.86-.58,11.89-1.2,15.59Zm29.14-145.31c-27.33,16.85-34.16,25.5-34.16,42.36v5.19c0,14.59-11.83,26.42-26.42,26.42h0c-14.59,0-26.42-11.83-26.42-26.42v-12.02c0-27.78,13.21-46.45,44.63-65.13,30.97-18.22,40.99-30.51,40.99-49.19,0-21.86-18.22-35.98-45.09-35.98-29.02,0-47.64,13.87-55.62,39.07-3.98,12.56-16.23,20.62-29.37,19.67h0c-18.46-1.34-31.01-19.58-25.36-37.21,14.47-45.11,54.84-73.9,110.35-73.9s102.02,36.89,102.02,87.44c0,33.25-16.85,56.02-55.56,79.7Z"/></g><text x="0" y="527" fill="#000000" font-size="5px" font-weight="bold" font-family="'Helvetica Neue', Helvetica, Arial-Unicode, Arial, Sans-serif"></text><text x="0" y="532" fill="#000000" font-size="5px" font-weight="bold" font-family="'Helvetica Neue', Helvetica, Arial-Unicode, Arial, Sans-serif"></text></svg>