<svg xmlns="http://www.w3.org/2000/svg" data-name="Layer 1" viewBox="0 0 72.78 96.775" x="0px" y="0px"><title>6</title><path d="M51.54,187.57H46.34a4.68,4.68,0,0,1-3.42-1.41,3.58,3.58,0,0,1-1-2.69l1.9-30.79-8.27,14.23a4.21,4.21,0,0,1-6,1.37l-4-2.73a4.21,4.21,0,0,1-.95-6.08l20.88-26.58a4.62,4.62,0,0,1,7,0l20.88,26.58a4.21,4.21,0,0,1-.95,6.08l-4,2.73a4.21,4.21,0,0,1-6-1.37l-8.27-14.23L56,183.47a3.58,3.58,0,0,1-1,2.69A4.69,4.69,0,0,1,51.54,187.57ZM47.2,141.51l-2.6,42.13a0.93,0.93,0,0,0,.28.68,2,2,0,0,0,1.46.56h5.21a2,2,0,0,0,1.46-.56,0.93,0.93,0,0,0,.28-0.68l-2.6-42.13,14,24.06a1.52,1.52,0,0,0,2.17.49l4-2.73a1.52,1.52,0,0,0,.34-2.2L50.32,134.55A1.5,1.5,0,0,0,49,134H48.86a1.51,1.51,0,0,0-1.29.57L26.69,161.13a1.52,1.52,0,0,0,.34,2.2l4,2.73a1.52,1.52,0,0,0,2.17-.49Z" transform="translate(-13.61 -131.29)"/><path d="M86.39,208.71H13.61V179.36a7.79,7.79,0,0,1,8-7.57h2.29a7.79,7.79,0,0,1,8,7.57v12.06H68.14V179.36a7.79,7.79,0,0,1,8-7.57h2.29a7.79,7.79,0,0,1,8,7.57v29.35ZM16.3,206H83.7V179.36a5.11,5.11,0,0,0-5.29-4.88H76.12a5.11,5.11,0,0,0-5.29,4.88v14.75H29.17V179.36a5.11,5.11,0,0,0-5.29-4.88H21.59a5.11,5.11,0,0,0-5.29,4.88V206Z" transform="translate(-13.61 -131.29)"/><text x="0" y="92.42" fill="#000000" font-size="5px" font-weight="bold" font-family="'Helvetica Neue', Helvetica, Arial-Unicode, Arial, Sans-serif"></text><text x="0" y="97.42" fill="#000000" font-size="5px" font-weight="bold" font-family="'Helvetica Neue', Helvetica, Arial-Unicode, Arial, Sans-serif"></text></svg>